G04 #@! TF.FileFunction,Copper,L1,Top,Signal*
%FSLAX46Y46*%
G04 Gerber Fmt 4.6, Leading zero omitted, Abs format (unit mm)*
G04 Created by KiCad (PCBNEW 4.0.5) date 05/24/17 23:08:23*
%MOMM*%
%LPD*%
G01*
G04 APERTURE LIST*
%ADD10C,0.100000*%
%ADD11C,1.600000*%
%ADD12O,1.600000X1.600000*%
%ADD13C,2.400000*%
%ADD14R,2.400000X2.400000*%
%ADD15O,2.400000X2.400000*%
%ADD16C,2.540000*%
%ADD17O,0.900000X1.500000*%
%ADD18R,0.900000X1.500000*%
%ADD19C,0.150000*%
%ADD20C,0.254000*%
G04 APERTURE END LIST*
D10*
D11*
X159385000Y-72390000D03*
D12*
X159385000Y-82550000D03*
D13*
X132080000Y-97790000D03*
X132080000Y-70290000D03*
D11*
X143510000Y-97790000D03*
D12*
X143510000Y-87630000D03*
D14*
X148590000Y-109855000D03*
D13*
X156090000Y-109855000D03*
D14*
X172085000Y-97790000D03*
D15*
X172085000Y-69790000D03*
D16*
X130810000Y-116840000D03*
X135890000Y-106680000D03*
X173355000Y-106680000D03*
X168275000Y-116840000D03*
D17*
X151765000Y-93345000D03*
X153035000Y-93345000D03*
D18*
X150495000Y-93345000D03*
D11*
X144780000Y-72390000D03*
D12*
X144780000Y-82550000D03*
D11*
X160655000Y-97790000D03*
D12*
X160655000Y-87630000D03*
D19*
X151765000Y-93345000D02*
X151765000Y-93645000D01*
X151765000Y-93645000D02*
X150883922Y-94526078D01*
X149940000Y-109855000D02*
X148590000Y-109855000D01*
X150883922Y-94526078D02*
X145293920Y-94526078D01*
X145293920Y-94526078D02*
X142509999Y-97309999D01*
X142509999Y-97309999D02*
X142509999Y-99964999D01*
X142509999Y-99964999D02*
X147754999Y-105209999D01*
X174060601Y-105209999D02*
X174825001Y-105974399D01*
X147754999Y-105209999D02*
X174060601Y-105209999D01*
X174825001Y-105974399D02*
X174825001Y-107385601D01*
X174825001Y-107385601D02*
X174060601Y-108150001D01*
X174060601Y-108150001D02*
X151644999Y-108150001D01*
X151644999Y-108150001D02*
X149940000Y-109855000D01*
X144780000Y-82550000D02*
X144780000Y-84759980D01*
X144780000Y-84759980D02*
X152415010Y-92394990D01*
X160655000Y-97790000D02*
X155259990Y-92394990D01*
X155259990Y-92394990D02*
X152415010Y-92394990D01*
X152415010Y-92394990D02*
X151765000Y-93045000D01*
X151765000Y-93045000D02*
X151765000Y-93345000D01*
X130810000Y-116840000D02*
X149105000Y-116840000D01*
X149105000Y-116840000D02*
X156090000Y-109855000D01*
X143510000Y-97790000D02*
X144309999Y-96990001D01*
X144309999Y-96990001D02*
X149689999Y-96990001D01*
X149689999Y-96990001D02*
X153035000Y-93645000D01*
X153035000Y-93645000D02*
X153035000Y-93345000D01*
X159085000Y-99695000D02*
X168830000Y-99695000D01*
X168830000Y-99695000D02*
X170735000Y-97790000D01*
X170735000Y-97790000D02*
X172085000Y-97790000D01*
X153035000Y-93645000D02*
X159085000Y-99695000D01*
X153035000Y-93045000D02*
X153035000Y-93345000D01*
X143510000Y-87630000D02*
X130679999Y-74799999D01*
X130679999Y-74799999D02*
X130679999Y-69617999D01*
X130679999Y-69617999D02*
X131407999Y-68889999D01*
X131407999Y-68889999D02*
X157365001Y-68889999D01*
X157365001Y-68889999D02*
X160655000Y-72179998D01*
X160655000Y-72179998D02*
X160655000Y-81220000D01*
X160655000Y-87630000D02*
X164685002Y-87630000D01*
X169544999Y-115570001D02*
X168275000Y-116840000D01*
X164685002Y-87630000D02*
X175100011Y-98045009D01*
X175100011Y-98045009D02*
X175100011Y-110014989D01*
X175100011Y-110014989D02*
X169544999Y-115570001D01*
X160655000Y-87630000D02*
X160655000Y-81220000D01*
X160655000Y-81220000D02*
X172085000Y-69790000D01*
X143510000Y-87630000D02*
X135890000Y-95250000D01*
X135890000Y-95250000D02*
X135890000Y-106680000D01*
X135619398Y-108585000D02*
X136160602Y-108585000D01*
X136160602Y-108585000D02*
X138065602Y-106680000D01*
X171558949Y-106680000D02*
X173355000Y-106680000D01*
X138065602Y-106680000D02*
X171558949Y-106680000D01*
X132080000Y-97790000D02*
X132080000Y-105045602D01*
X132080000Y-105045602D02*
X135619398Y-108585000D01*
X132080000Y-70290000D02*
X133279999Y-71489999D01*
X133279999Y-71489999D02*
X133279999Y-71569999D01*
X133279999Y-71569999D02*
X143779999Y-82069999D01*
X150495000Y-93345000D02*
X150495000Y-93045000D01*
X150495000Y-93045000D02*
X143779999Y-86329999D01*
X143779999Y-86329999D02*
X143779999Y-82069999D01*
X143779999Y-82069999D02*
X144299999Y-81549999D01*
X144299999Y-81549999D02*
X158384999Y-81549999D01*
X158384999Y-81549999D02*
X158585001Y-81750001D01*
X158585001Y-81750001D02*
X159385000Y-82550000D01*
X144780000Y-72390000D02*
X159385000Y-72390000D01*
D20*
G36*
X177750000Y-118695000D02*
X168798839Y-118695000D01*
X169311480Y-118482657D01*
X169443172Y-118187777D01*
X168275000Y-117019605D01*
X167106828Y-118187777D01*
X167238520Y-118482657D01*
X167791664Y-118695000D01*
X131309073Y-118695000D01*
X131887686Y-118455922D01*
X132424039Y-117920505D01*
X132577886Y-117550000D01*
X149105000Y-117550000D01*
X149376705Y-117495954D01*
X149607046Y-117342046D01*
X150438056Y-116511036D01*
X166360739Y-116511036D01*
X166380564Y-117268632D01*
X166632343Y-117876480D01*
X166927223Y-118008172D01*
X168095395Y-116840000D01*
X168454605Y-116840000D01*
X169622777Y-118008172D01*
X169917657Y-117876480D01*
X170189261Y-117168964D01*
X170169436Y-116411368D01*
X169917657Y-115803520D01*
X169622777Y-115671828D01*
X168454605Y-116840000D01*
X168095395Y-116840000D01*
X166927223Y-115671828D01*
X166632343Y-115803520D01*
X166360739Y-116511036D01*
X150438056Y-116511036D01*
X151456869Y-115492223D01*
X167106828Y-115492223D01*
X168275000Y-116660395D01*
X169443172Y-115492223D01*
X169311480Y-115197343D01*
X168603964Y-114925739D01*
X167846368Y-114945564D01*
X167238520Y-115197343D01*
X167106828Y-115492223D01*
X151456869Y-115492223D01*
X155395546Y-111553546D01*
X155723395Y-111689681D01*
X156453403Y-111690318D01*
X157128086Y-111411545D01*
X157644730Y-110895801D01*
X157924681Y-110221605D01*
X157925318Y-109491597D01*
X157664348Y-108860001D01*
X174060601Y-108860001D01*
X174332306Y-108805955D01*
X174562647Y-108652047D01*
X175327047Y-107887647D01*
X175480955Y-107657306D01*
X175535001Y-107385601D01*
X175535001Y-105974399D01*
X175480955Y-105702694D01*
X175327047Y-105472353D01*
X174562647Y-104707953D01*
X174332306Y-104554045D01*
X174060601Y-104499999D01*
X148049091Y-104499999D01*
X143219999Y-99670907D01*
X143219999Y-99223376D01*
X143223309Y-99224750D01*
X143794187Y-99225248D01*
X144321800Y-99007243D01*
X144725824Y-98603923D01*
X144944750Y-98076691D01*
X144945079Y-97700001D01*
X149689999Y-97700001D01*
X149961704Y-97645955D01*
X150192045Y-97492047D01*
X152944883Y-94739209D01*
X153035000Y-94757134D01*
X153125117Y-94739209D01*
X158582954Y-100197046D01*
X158813295Y-100350954D01*
X159085000Y-100405000D01*
X168830000Y-100405000D01*
X169101705Y-100350954D01*
X169332046Y-100197046D01*
X170290427Y-99238665D01*
X170420910Y-99441441D01*
X170633110Y-99586431D01*
X170885000Y-99637440D01*
X173285000Y-99637440D01*
X173520317Y-99593162D01*
X173736441Y-99454090D01*
X173881431Y-99241890D01*
X173932440Y-98990000D01*
X173932440Y-96590000D01*
X173888162Y-96354683D01*
X173749090Y-96138559D01*
X173536890Y-95993569D01*
X173285000Y-95942560D01*
X170885000Y-95942560D01*
X170649683Y-95986838D01*
X170433559Y-96125910D01*
X170288569Y-96338110D01*
X170237560Y-96590000D01*
X170237560Y-97284876D01*
X170232954Y-97287954D01*
X168535908Y-98985000D01*
X161489082Y-98985000D01*
X161870824Y-98603923D01*
X162089750Y-98076691D01*
X162090248Y-97505813D01*
X161872243Y-96978200D01*
X161468923Y-96574176D01*
X160941691Y-96355250D01*
X160370813Y-96354752D01*
X160266815Y-96397723D01*
X155762036Y-91892944D01*
X155531695Y-91739036D01*
X155259990Y-91684990D01*
X152709102Y-91684990D01*
X149003153Y-87979041D01*
X159263086Y-87979041D01*
X159502611Y-88485134D01*
X159917577Y-88861041D01*
X160305961Y-89021904D01*
X160528000Y-88899915D01*
X160528000Y-87757000D01*
X160782000Y-87757000D01*
X160782000Y-88899915D01*
X161004039Y-89021904D01*
X161392423Y-88861041D01*
X161807389Y-88485134D01*
X162046914Y-87979041D01*
X161925629Y-87757000D01*
X160782000Y-87757000D01*
X160528000Y-87757000D01*
X159384371Y-87757000D01*
X159263086Y-87979041D01*
X149003153Y-87979041D01*
X148305071Y-87280959D01*
X159263086Y-87280959D01*
X159384371Y-87503000D01*
X160528000Y-87503000D01*
X160528000Y-86360085D01*
X160782000Y-86360085D01*
X160782000Y-87503000D01*
X161925629Y-87503000D01*
X162046914Y-87280959D01*
X161807389Y-86774866D01*
X161392423Y-86398959D01*
X161004039Y-86238096D01*
X160782000Y-86360085D01*
X160528000Y-86360085D01*
X160305961Y-86238096D01*
X159917577Y-86398959D01*
X159502611Y-86774866D01*
X159263086Y-87280959D01*
X148305071Y-87280959D01*
X145490000Y-84465888D01*
X145490000Y-83796404D01*
X145794698Y-83592811D01*
X146105767Y-83127264D01*
X146215000Y-82578113D01*
X146215000Y-82521887D01*
X146162907Y-82259999D01*
X158002093Y-82259999D01*
X157950000Y-82521887D01*
X157950000Y-82578113D01*
X158059233Y-83127264D01*
X158370302Y-83592811D01*
X158835849Y-83903880D01*
X159385000Y-84013113D01*
X159934151Y-83903880D01*
X160399698Y-83592811D01*
X160710767Y-83127264D01*
X160820000Y-82578113D01*
X160820000Y-82521887D01*
X160710767Y-81972736D01*
X160399698Y-81507189D01*
X159934151Y-81196120D01*
X159385000Y-81086887D01*
X159002135Y-81163044D01*
X158887045Y-81047953D01*
X158656704Y-80894045D01*
X158384999Y-80839999D01*
X144299999Y-80839999D01*
X144028294Y-80894045D01*
X143797953Y-81047953D01*
X143779999Y-81065907D01*
X135388279Y-72674187D01*
X143344752Y-72674187D01*
X143562757Y-73201800D01*
X143966077Y-73605824D01*
X144493309Y-73824750D01*
X145064187Y-73825248D01*
X145591800Y-73607243D01*
X145995824Y-73203923D01*
X146038977Y-73100000D01*
X158125694Y-73100000D01*
X158167757Y-73201800D01*
X158571077Y-73605824D01*
X159098309Y-73824750D01*
X159669187Y-73825248D01*
X160196800Y-73607243D01*
X160600824Y-73203923D01*
X160819750Y-72676691D01*
X160820248Y-72105813D01*
X160602243Y-71578200D01*
X160198923Y-71174176D01*
X159671691Y-70955250D01*
X159100813Y-70954752D01*
X158573200Y-71172757D01*
X158169176Y-71576077D01*
X158126023Y-71680000D01*
X146039306Y-71680000D01*
X145997243Y-71578200D01*
X145593923Y-71174176D01*
X145066691Y-70955250D01*
X144495813Y-70954752D01*
X143968200Y-71172757D01*
X143564176Y-71576077D01*
X143345250Y-72103309D01*
X143344752Y-72674187D01*
X135388279Y-72674187D01*
X133936839Y-71222747D01*
X133935953Y-71218294D01*
X133782045Y-70987953D01*
X133778546Y-70984454D01*
X133914681Y-70656605D01*
X133915077Y-70201807D01*
X170296797Y-70201807D01*
X170590508Y-70854776D01*
X171111742Y-71345642D01*
X171673195Y-71578195D01*
X171958000Y-71461432D01*
X171958000Y-69917000D01*
X172212000Y-69917000D01*
X172212000Y-71461432D01*
X172496805Y-71578195D01*
X173058258Y-71345642D01*
X173579492Y-70854776D01*
X173873203Y-70201807D01*
X173756858Y-69917000D01*
X172212000Y-69917000D01*
X171958000Y-69917000D01*
X170413142Y-69917000D01*
X170296797Y-70201807D01*
X133915077Y-70201807D01*
X133915318Y-69926597D01*
X133688723Y-69378193D01*
X170296797Y-69378193D01*
X170413142Y-69663000D01*
X171958000Y-69663000D01*
X171958000Y-68118568D01*
X172212000Y-68118568D01*
X172212000Y-69663000D01*
X173756858Y-69663000D01*
X173873203Y-69378193D01*
X173579492Y-68725224D01*
X173058258Y-68234358D01*
X172496805Y-68001805D01*
X172212000Y-68118568D01*
X171958000Y-68118568D01*
X171673195Y-68001805D01*
X171111742Y-68234358D01*
X170590508Y-68725224D01*
X170296797Y-69378193D01*
X133688723Y-69378193D01*
X133636545Y-69251914D01*
X133120801Y-68735270D01*
X132446605Y-68455319D01*
X131716597Y-68454682D01*
X131041914Y-68733455D01*
X130525270Y-69249199D01*
X130245319Y-69923395D01*
X130244682Y-70653403D01*
X130523455Y-71328086D01*
X131039199Y-71844730D01*
X131713395Y-72124681D01*
X132443403Y-72125318D01*
X132733467Y-72005466D01*
X132777953Y-72072045D01*
X143069999Y-82364091D01*
X143069999Y-86275771D01*
X142772577Y-86398959D01*
X142357611Y-86774866D01*
X142118086Y-87280959D01*
X142239371Y-87503000D01*
X143383000Y-87503000D01*
X143383000Y-87483000D01*
X143637000Y-87483000D01*
X143637000Y-87503000D01*
X143657000Y-87503000D01*
X143657000Y-87757000D01*
X143637000Y-87757000D01*
X143637000Y-88899915D01*
X143859039Y-89021904D01*
X144247423Y-88861041D01*
X144662389Y-88485134D01*
X144748692Y-88302784D01*
X149397560Y-92951651D01*
X149397560Y-93816078D01*
X145293920Y-93816078D01*
X145022215Y-93870124D01*
X144791874Y-94024032D01*
X142007953Y-96807953D01*
X141854045Y-97038294D01*
X141799999Y-97309999D01*
X141799999Y-99964999D01*
X141854045Y-100236704D01*
X142007953Y-100467045D01*
X147252953Y-105712045D01*
X147483294Y-105865953D01*
X147754999Y-105919999D01*
X171607877Y-105919999D01*
X171587114Y-105970000D01*
X138065602Y-105970000D01*
X137793897Y-106024046D01*
X137712738Y-106078274D01*
X137532657Y-105643520D01*
X137237777Y-105511828D01*
X136069605Y-106680000D01*
X136083748Y-106694143D01*
X135904143Y-106873748D01*
X135890000Y-106859605D01*
X135875858Y-106873748D01*
X135696253Y-106694143D01*
X135710395Y-106680000D01*
X134542223Y-105511828D01*
X134247343Y-105643520D01*
X134090522Y-106052032D01*
X133370713Y-105332223D01*
X134721828Y-105332223D01*
X135890000Y-106500395D01*
X137058172Y-105332223D01*
X136926480Y-105037343D01*
X136218964Y-104765739D01*
X135461368Y-104785564D01*
X134853520Y-105037343D01*
X134721828Y-105332223D01*
X133370713Y-105332223D01*
X132790000Y-104751510D01*
X132790000Y-99482107D01*
X133118086Y-99346545D01*
X133634730Y-98830801D01*
X133914681Y-98156605D01*
X133915318Y-97426597D01*
X133636545Y-96751914D01*
X133120801Y-96235270D01*
X132446605Y-95955319D01*
X131716597Y-95954682D01*
X131041914Y-96233455D01*
X130525270Y-96749199D01*
X130245319Y-97423395D01*
X130244682Y-98153403D01*
X130523455Y-98828086D01*
X131039199Y-99344730D01*
X131370000Y-99482091D01*
X131370000Y-105045602D01*
X131424046Y-105317307D01*
X131577954Y-105547648D01*
X135117352Y-109087046D01*
X135347693Y-109240954D01*
X135619398Y-109295001D01*
X135619403Y-109295000D01*
X136160602Y-109295000D01*
X136432307Y-109240954D01*
X136662648Y-109087046D01*
X138359694Y-107390000D01*
X171587153Y-107390000D01*
X171607813Y-107440001D01*
X151644999Y-107440001D01*
X151373294Y-107494047D01*
X151142953Y-107647955D01*
X150384573Y-108406335D01*
X150254090Y-108203559D01*
X150041890Y-108058569D01*
X149790000Y-108007560D01*
X147390000Y-108007560D01*
X147154683Y-108051838D01*
X146938559Y-108190910D01*
X146793569Y-108403110D01*
X146742560Y-108655000D01*
X146742560Y-111055000D01*
X146786838Y-111290317D01*
X146925910Y-111506441D01*
X147138110Y-111651431D01*
X147390000Y-111702440D01*
X149790000Y-111702440D01*
X150025317Y-111658162D01*
X150241441Y-111519090D01*
X150386431Y-111306890D01*
X150437440Y-111055000D01*
X150437440Y-110360124D01*
X150442046Y-110357046D01*
X151939091Y-108860001D01*
X154516251Y-108860001D01*
X154255319Y-109488395D01*
X154254682Y-110218403D01*
X154391465Y-110549443D01*
X148810908Y-116130000D01*
X132577847Y-116130000D01*
X132425922Y-115762314D01*
X131890505Y-115225961D01*
X131190590Y-114935332D01*
X130432735Y-114934670D01*
X129732314Y-115224078D01*
X129195961Y-115759495D01*
X128905332Y-116459410D01*
X128904670Y-117217265D01*
X129194078Y-117917686D01*
X129729495Y-118454039D01*
X130309796Y-118695000D01*
X126415000Y-118695000D01*
X126415000Y-87979041D01*
X142118086Y-87979041D01*
X142357611Y-88485134D01*
X142772577Y-88861041D01*
X143160961Y-89021904D01*
X143383000Y-88899915D01*
X143383000Y-87757000D01*
X142239371Y-87757000D01*
X142118086Y-87979041D01*
X126415000Y-87979041D01*
X126415000Y-67360000D01*
X177750000Y-67360000D01*
X177750000Y-118695000D01*
X177750000Y-118695000D01*
G37*
X177750000Y-118695000D02*
X168798839Y-118695000D01*
X169311480Y-118482657D01*
X169443172Y-118187777D01*
X168275000Y-117019605D01*
X167106828Y-118187777D01*
X167238520Y-118482657D01*
X167791664Y-118695000D01*
X131309073Y-118695000D01*
X131887686Y-118455922D01*
X132424039Y-117920505D01*
X132577886Y-117550000D01*
X149105000Y-117550000D01*
X149376705Y-117495954D01*
X149607046Y-117342046D01*
X150438056Y-116511036D01*
X166360739Y-116511036D01*
X166380564Y-117268632D01*
X166632343Y-117876480D01*
X166927223Y-118008172D01*
X168095395Y-116840000D01*
X168454605Y-116840000D01*
X169622777Y-118008172D01*
X169917657Y-117876480D01*
X170189261Y-117168964D01*
X170169436Y-116411368D01*
X169917657Y-115803520D01*
X169622777Y-115671828D01*
X168454605Y-116840000D01*
X168095395Y-116840000D01*
X166927223Y-115671828D01*
X166632343Y-115803520D01*
X166360739Y-116511036D01*
X150438056Y-116511036D01*
X151456869Y-115492223D01*
X167106828Y-115492223D01*
X168275000Y-116660395D01*
X169443172Y-115492223D01*
X169311480Y-115197343D01*
X168603964Y-114925739D01*
X167846368Y-114945564D01*
X167238520Y-115197343D01*
X167106828Y-115492223D01*
X151456869Y-115492223D01*
X155395546Y-111553546D01*
X155723395Y-111689681D01*
X156453403Y-111690318D01*
X157128086Y-111411545D01*
X157644730Y-110895801D01*
X157924681Y-110221605D01*
X157925318Y-109491597D01*
X157664348Y-108860001D01*
X174060601Y-108860001D01*
X174332306Y-108805955D01*
X174562647Y-108652047D01*
X175327047Y-107887647D01*
X175480955Y-107657306D01*
X175535001Y-107385601D01*
X175535001Y-105974399D01*
X175480955Y-105702694D01*
X175327047Y-105472353D01*
X174562647Y-104707953D01*
X174332306Y-104554045D01*
X174060601Y-104499999D01*
X148049091Y-104499999D01*
X143219999Y-99670907D01*
X143219999Y-99223376D01*
X143223309Y-99224750D01*
X143794187Y-99225248D01*
X144321800Y-99007243D01*
X144725824Y-98603923D01*
X144944750Y-98076691D01*
X144945079Y-97700001D01*
X149689999Y-97700001D01*
X149961704Y-97645955D01*
X150192045Y-97492047D01*
X152944883Y-94739209D01*
X153035000Y-94757134D01*
X153125117Y-94739209D01*
X158582954Y-100197046D01*
X158813295Y-100350954D01*
X159085000Y-100405000D01*
X168830000Y-100405000D01*
X169101705Y-100350954D01*
X169332046Y-100197046D01*
X170290427Y-99238665D01*
X170420910Y-99441441D01*
X170633110Y-99586431D01*
X170885000Y-99637440D01*
X173285000Y-99637440D01*
X173520317Y-99593162D01*
X173736441Y-99454090D01*
X173881431Y-99241890D01*
X173932440Y-98990000D01*
X173932440Y-96590000D01*
X173888162Y-96354683D01*
X173749090Y-96138559D01*
X173536890Y-95993569D01*
X173285000Y-95942560D01*
X170885000Y-95942560D01*
X170649683Y-95986838D01*
X170433559Y-96125910D01*
X170288569Y-96338110D01*
X170237560Y-96590000D01*
X170237560Y-97284876D01*
X170232954Y-97287954D01*
X168535908Y-98985000D01*
X161489082Y-98985000D01*
X161870824Y-98603923D01*
X162089750Y-98076691D01*
X162090248Y-97505813D01*
X161872243Y-96978200D01*
X161468923Y-96574176D01*
X160941691Y-96355250D01*
X160370813Y-96354752D01*
X160266815Y-96397723D01*
X155762036Y-91892944D01*
X155531695Y-91739036D01*
X155259990Y-91684990D01*
X152709102Y-91684990D01*
X149003153Y-87979041D01*
X159263086Y-87979041D01*
X159502611Y-88485134D01*
X159917577Y-88861041D01*
X160305961Y-89021904D01*
X160528000Y-88899915D01*
X160528000Y-87757000D01*
X160782000Y-87757000D01*
X160782000Y-88899915D01*
X161004039Y-89021904D01*
X161392423Y-88861041D01*
X161807389Y-88485134D01*
X162046914Y-87979041D01*
X161925629Y-87757000D01*
X160782000Y-87757000D01*
X160528000Y-87757000D01*
X159384371Y-87757000D01*
X159263086Y-87979041D01*
X149003153Y-87979041D01*
X148305071Y-87280959D01*
X159263086Y-87280959D01*
X159384371Y-87503000D01*
X160528000Y-87503000D01*
X160528000Y-86360085D01*
X160782000Y-86360085D01*
X160782000Y-87503000D01*
X161925629Y-87503000D01*
X162046914Y-87280959D01*
X161807389Y-86774866D01*
X161392423Y-86398959D01*
X161004039Y-86238096D01*
X160782000Y-86360085D01*
X160528000Y-86360085D01*
X160305961Y-86238096D01*
X159917577Y-86398959D01*
X159502611Y-86774866D01*
X159263086Y-87280959D01*
X148305071Y-87280959D01*
X145490000Y-84465888D01*
X145490000Y-83796404D01*
X145794698Y-83592811D01*
X146105767Y-83127264D01*
X146215000Y-82578113D01*
X146215000Y-82521887D01*
X146162907Y-82259999D01*
X158002093Y-82259999D01*
X157950000Y-82521887D01*
X157950000Y-82578113D01*
X158059233Y-83127264D01*
X158370302Y-83592811D01*
X158835849Y-83903880D01*
X159385000Y-84013113D01*
X159934151Y-83903880D01*
X160399698Y-83592811D01*
X160710767Y-83127264D01*
X160820000Y-82578113D01*
X160820000Y-82521887D01*
X160710767Y-81972736D01*
X160399698Y-81507189D01*
X159934151Y-81196120D01*
X159385000Y-81086887D01*
X159002135Y-81163044D01*
X158887045Y-81047953D01*
X158656704Y-80894045D01*
X158384999Y-80839999D01*
X144299999Y-80839999D01*
X144028294Y-80894045D01*
X143797953Y-81047953D01*
X143779999Y-81065907D01*
X135388279Y-72674187D01*
X143344752Y-72674187D01*
X143562757Y-73201800D01*
X143966077Y-73605824D01*
X144493309Y-73824750D01*
X145064187Y-73825248D01*
X145591800Y-73607243D01*
X145995824Y-73203923D01*
X146038977Y-73100000D01*
X158125694Y-73100000D01*
X158167757Y-73201800D01*
X158571077Y-73605824D01*
X159098309Y-73824750D01*
X159669187Y-73825248D01*
X160196800Y-73607243D01*
X160600824Y-73203923D01*
X160819750Y-72676691D01*
X160820248Y-72105813D01*
X160602243Y-71578200D01*
X160198923Y-71174176D01*
X159671691Y-70955250D01*
X159100813Y-70954752D01*
X158573200Y-71172757D01*
X158169176Y-71576077D01*
X158126023Y-71680000D01*
X146039306Y-71680000D01*
X145997243Y-71578200D01*
X145593923Y-71174176D01*
X145066691Y-70955250D01*
X144495813Y-70954752D01*
X143968200Y-71172757D01*
X143564176Y-71576077D01*
X143345250Y-72103309D01*
X143344752Y-72674187D01*
X135388279Y-72674187D01*
X133936839Y-71222747D01*
X133935953Y-71218294D01*
X133782045Y-70987953D01*
X133778546Y-70984454D01*
X133914681Y-70656605D01*
X133915077Y-70201807D01*
X170296797Y-70201807D01*
X170590508Y-70854776D01*
X171111742Y-71345642D01*
X171673195Y-71578195D01*
X171958000Y-71461432D01*
X171958000Y-69917000D01*
X172212000Y-69917000D01*
X172212000Y-71461432D01*
X172496805Y-71578195D01*
X173058258Y-71345642D01*
X173579492Y-70854776D01*
X173873203Y-70201807D01*
X173756858Y-69917000D01*
X172212000Y-69917000D01*
X171958000Y-69917000D01*
X170413142Y-69917000D01*
X170296797Y-70201807D01*
X133915077Y-70201807D01*
X133915318Y-69926597D01*
X133688723Y-69378193D01*
X170296797Y-69378193D01*
X170413142Y-69663000D01*
X171958000Y-69663000D01*
X171958000Y-68118568D01*
X172212000Y-68118568D01*
X172212000Y-69663000D01*
X173756858Y-69663000D01*
X173873203Y-69378193D01*
X173579492Y-68725224D01*
X173058258Y-68234358D01*
X172496805Y-68001805D01*
X172212000Y-68118568D01*
X171958000Y-68118568D01*
X171673195Y-68001805D01*
X171111742Y-68234358D01*
X170590508Y-68725224D01*
X170296797Y-69378193D01*
X133688723Y-69378193D01*
X133636545Y-69251914D01*
X133120801Y-68735270D01*
X132446605Y-68455319D01*
X131716597Y-68454682D01*
X131041914Y-68733455D01*
X130525270Y-69249199D01*
X130245319Y-69923395D01*
X130244682Y-70653403D01*
X130523455Y-71328086D01*
X131039199Y-71844730D01*
X131713395Y-72124681D01*
X132443403Y-72125318D01*
X132733467Y-72005466D01*
X132777953Y-72072045D01*
X143069999Y-82364091D01*
X143069999Y-86275771D01*
X142772577Y-86398959D01*
X142357611Y-86774866D01*
X142118086Y-87280959D01*
X142239371Y-87503000D01*
X143383000Y-87503000D01*
X143383000Y-87483000D01*
X143637000Y-87483000D01*
X143637000Y-87503000D01*
X143657000Y-87503000D01*
X143657000Y-87757000D01*
X143637000Y-87757000D01*
X143637000Y-88899915D01*
X143859039Y-89021904D01*
X144247423Y-88861041D01*
X144662389Y-88485134D01*
X144748692Y-88302784D01*
X149397560Y-92951651D01*
X149397560Y-93816078D01*
X145293920Y-93816078D01*
X145022215Y-93870124D01*
X144791874Y-94024032D01*
X142007953Y-96807953D01*
X141854045Y-97038294D01*
X141799999Y-97309999D01*
X141799999Y-99964999D01*
X141854045Y-100236704D01*
X142007953Y-100467045D01*
X147252953Y-105712045D01*
X147483294Y-105865953D01*
X147754999Y-105919999D01*
X171607877Y-105919999D01*
X171587114Y-105970000D01*
X138065602Y-105970000D01*
X137793897Y-106024046D01*
X137712738Y-106078274D01*
X137532657Y-105643520D01*
X137237777Y-105511828D01*
X136069605Y-106680000D01*
X136083748Y-106694143D01*
X135904143Y-106873748D01*
X135890000Y-106859605D01*
X135875858Y-106873748D01*
X135696253Y-106694143D01*
X135710395Y-106680000D01*
X134542223Y-105511828D01*
X134247343Y-105643520D01*
X134090522Y-106052032D01*
X133370713Y-105332223D01*
X134721828Y-105332223D01*
X135890000Y-106500395D01*
X137058172Y-105332223D01*
X136926480Y-105037343D01*
X136218964Y-104765739D01*
X135461368Y-104785564D01*
X134853520Y-105037343D01*
X134721828Y-105332223D01*
X133370713Y-105332223D01*
X132790000Y-104751510D01*
X132790000Y-99482107D01*
X133118086Y-99346545D01*
X133634730Y-98830801D01*
X133914681Y-98156605D01*
X133915318Y-97426597D01*
X133636545Y-96751914D01*
X133120801Y-96235270D01*
X132446605Y-95955319D01*
X131716597Y-95954682D01*
X131041914Y-96233455D01*
X130525270Y-96749199D01*
X130245319Y-97423395D01*
X130244682Y-98153403D01*
X130523455Y-98828086D01*
X131039199Y-99344730D01*
X131370000Y-99482091D01*
X131370000Y-105045602D01*
X131424046Y-105317307D01*
X131577954Y-105547648D01*
X135117352Y-109087046D01*
X135347693Y-109240954D01*
X135619398Y-109295001D01*
X135619403Y-109295000D01*
X136160602Y-109295000D01*
X136432307Y-109240954D01*
X136662648Y-109087046D01*
X138359694Y-107390000D01*
X171587153Y-107390000D01*
X171607813Y-107440001D01*
X151644999Y-107440001D01*
X151373294Y-107494047D01*
X151142953Y-107647955D01*
X150384573Y-108406335D01*
X150254090Y-108203559D01*
X150041890Y-108058569D01*
X149790000Y-108007560D01*
X147390000Y-108007560D01*
X147154683Y-108051838D01*
X146938559Y-108190910D01*
X146793569Y-108403110D01*
X146742560Y-108655000D01*
X146742560Y-111055000D01*
X146786838Y-111290317D01*
X146925910Y-111506441D01*
X147138110Y-111651431D01*
X147390000Y-111702440D01*
X149790000Y-111702440D01*
X150025317Y-111658162D01*
X150241441Y-111519090D01*
X150386431Y-111306890D01*
X150437440Y-111055000D01*
X150437440Y-110360124D01*
X150442046Y-110357046D01*
X151939091Y-108860001D01*
X154516251Y-108860001D01*
X154255319Y-109488395D01*
X154254682Y-110218403D01*
X154391465Y-110549443D01*
X148810908Y-116130000D01*
X132577847Y-116130000D01*
X132425922Y-115762314D01*
X131890505Y-115225961D01*
X131190590Y-114935332D01*
X130432735Y-114934670D01*
X129732314Y-115224078D01*
X129195961Y-115759495D01*
X128905332Y-116459410D01*
X128904670Y-117217265D01*
X129194078Y-117917686D01*
X129729495Y-118454039D01*
X130309796Y-118695000D01*
X126415000Y-118695000D01*
X126415000Y-87979041D01*
X142118086Y-87979041D01*
X142357611Y-88485134D01*
X142772577Y-88861041D01*
X143160961Y-89021904D01*
X143383000Y-88899915D01*
X143383000Y-87757000D01*
X142239371Y-87757000D01*
X142118086Y-87979041D01*
X126415000Y-87979041D01*
X126415000Y-67360000D01*
X177750000Y-67360000D01*
X177750000Y-118695000D01*
M02*
