G04 #@! TF.FileFunction,Legend,Top*
%FSLAX46Y46*%
G04 Gerber Fmt 4.6, Leading zero omitted, Abs format (unit mm)*
G04 Created by KiCad (PCBNEW 4.0.5) date 05/24/17 23:08:23*
%MOMM*%
%LPD*%
G01*
G04 APERTURE LIST*
%ADD10C,0.100000*%
%ADD11C,0.120000*%
%ADD12C,0.150000*%
G04 APERTURE END LIST*
D10*
D11*
X160695000Y-74260000D02*
X158075000Y-74260000D01*
X158075000Y-74260000D02*
X158075000Y-80680000D01*
X158075000Y-80680000D02*
X160695000Y-80680000D01*
X160695000Y-80680000D02*
X160695000Y-74260000D01*
X159385000Y-73370000D02*
X159385000Y-74260000D01*
X159385000Y-81570000D02*
X159385000Y-80680000D01*
X127520000Y-99850000D02*
X127520000Y-68230000D01*
X136640000Y-99850000D02*
X136640000Y-68230000D01*
X127520000Y-99850000D02*
X136640000Y-99850000D01*
X127520000Y-68230000D02*
X136640000Y-68230000D01*
X142200000Y-95920000D02*
X144820000Y-95920000D01*
X144820000Y-95920000D02*
X144820000Y-89500000D01*
X144820000Y-89500000D02*
X142200000Y-89500000D01*
X142200000Y-89500000D02*
X142200000Y-95920000D01*
X143510000Y-96810000D02*
X143510000Y-95920000D01*
X143510000Y-88610000D02*
X143510000Y-89500000D01*
X152340000Y-101804000D02*
X152340000Y-117906000D01*
X152380000Y-101805000D02*
X152380000Y-117905000D01*
X152420000Y-101805000D02*
X152420000Y-117905000D01*
X152460000Y-101805000D02*
X152460000Y-117905000D01*
X152500000Y-101806000D02*
X152500000Y-117904000D01*
X152540000Y-101807000D02*
X152540000Y-117903000D01*
X152580000Y-101808000D02*
X152580000Y-117902000D01*
X152620000Y-101809000D02*
X152620000Y-117901000D01*
X152660000Y-101811000D02*
X152660000Y-117899000D01*
X152700000Y-101813000D02*
X152700000Y-117897000D01*
X152740000Y-101814000D02*
X152740000Y-117896000D01*
X152780000Y-101816000D02*
X152780000Y-117894000D01*
X152820000Y-101819000D02*
X152820000Y-117891000D01*
X152860000Y-101821000D02*
X152860000Y-117889000D01*
X152900000Y-101824000D02*
X152900000Y-117886000D01*
X152940000Y-101827000D02*
X152940000Y-117883000D01*
X152980000Y-101830000D02*
X152980000Y-117880000D01*
X153020000Y-101833000D02*
X153020000Y-117877000D01*
X153061000Y-101837000D02*
X153061000Y-117873000D01*
X153101000Y-101840000D02*
X153101000Y-117870000D01*
X153141000Y-101844000D02*
X153141000Y-117866000D01*
X153181000Y-101848000D02*
X153181000Y-117862000D01*
X153221000Y-101853000D02*
X153221000Y-117857000D01*
X153261000Y-101857000D02*
X153261000Y-117853000D01*
X153301000Y-101862000D02*
X153301000Y-117848000D01*
X153341000Y-101867000D02*
X153341000Y-117843000D01*
X153381000Y-101872000D02*
X153381000Y-117838000D01*
X153421000Y-101877000D02*
X153421000Y-117833000D01*
X153461000Y-101882000D02*
X153461000Y-117828000D01*
X153501000Y-101888000D02*
X153501000Y-117822000D01*
X153541000Y-101894000D02*
X153541000Y-117816000D01*
X153581000Y-101900000D02*
X153581000Y-117810000D01*
X153621000Y-101906000D02*
X153621000Y-117804000D01*
X153661000Y-101913000D02*
X153661000Y-117797000D01*
X153701000Y-101920000D02*
X153701000Y-117790000D01*
X153741000Y-101927000D02*
X153741000Y-117783000D01*
X153781000Y-101934000D02*
X153781000Y-117776000D01*
X153821000Y-101941000D02*
X153821000Y-117769000D01*
X153861000Y-101949000D02*
X153861000Y-117761000D01*
X153901000Y-101956000D02*
X153901000Y-117754000D01*
X153941000Y-101964000D02*
X153941000Y-117746000D01*
X153981000Y-101972000D02*
X153981000Y-117738000D01*
X154021000Y-101981000D02*
X154021000Y-117729000D01*
X154061000Y-101989000D02*
X154061000Y-117721000D01*
X154101000Y-101998000D02*
X154101000Y-117712000D01*
X154141000Y-102007000D02*
X154141000Y-117703000D01*
X154181000Y-102017000D02*
X154181000Y-117693000D01*
X154221000Y-102026000D02*
X154221000Y-117684000D01*
X154261000Y-102036000D02*
X154261000Y-117674000D01*
X154301000Y-102046000D02*
X154301000Y-117664000D01*
X154341000Y-102056000D02*
X154341000Y-117654000D01*
X154381000Y-102066000D02*
X154381000Y-117644000D01*
X154421000Y-102076000D02*
X154421000Y-117634000D01*
X154461000Y-102087000D02*
X154461000Y-117623000D01*
X154501000Y-102098000D02*
X154501000Y-117612000D01*
X154541000Y-102109000D02*
X154541000Y-117601000D01*
X154581000Y-102121000D02*
X154581000Y-117589000D01*
X154621000Y-102132000D02*
X154621000Y-117578000D01*
X154661000Y-102144000D02*
X154661000Y-117566000D01*
X154701000Y-102156000D02*
X154701000Y-117554000D01*
X154741000Y-102169000D02*
X154741000Y-108475000D01*
X154741000Y-111235000D02*
X154741000Y-117541000D01*
X154781000Y-102181000D02*
X154781000Y-108475000D01*
X154781000Y-111235000D02*
X154781000Y-117529000D01*
X154821000Y-102194000D02*
X154821000Y-108475000D01*
X154821000Y-111235000D02*
X154821000Y-117516000D01*
X154861000Y-102207000D02*
X154861000Y-108475000D01*
X154861000Y-111235000D02*
X154861000Y-117503000D01*
X154901000Y-102220000D02*
X154901000Y-108475000D01*
X154901000Y-111235000D02*
X154901000Y-117490000D01*
X154941000Y-102234000D02*
X154941000Y-108475000D01*
X154941000Y-111235000D02*
X154941000Y-117476000D01*
X154981000Y-102247000D02*
X154981000Y-108475000D01*
X154981000Y-111235000D02*
X154981000Y-117463000D01*
X155021000Y-102261000D02*
X155021000Y-108475000D01*
X155021000Y-111235000D02*
X155021000Y-117449000D01*
X155061000Y-102275000D02*
X155061000Y-108475000D01*
X155061000Y-111235000D02*
X155061000Y-117435000D01*
X155101000Y-102290000D02*
X155101000Y-108475000D01*
X155101000Y-111235000D02*
X155101000Y-117420000D01*
X155141000Y-102305000D02*
X155141000Y-108475000D01*
X155141000Y-111235000D02*
X155141000Y-117405000D01*
X155181000Y-102319000D02*
X155181000Y-108475000D01*
X155181000Y-111235000D02*
X155181000Y-117391000D01*
X155221000Y-102334000D02*
X155221000Y-108475000D01*
X155221000Y-111235000D02*
X155221000Y-117376000D01*
X155261000Y-102350000D02*
X155261000Y-108475000D01*
X155261000Y-111235000D02*
X155261000Y-117360000D01*
X155301000Y-102365000D02*
X155301000Y-108475000D01*
X155301000Y-111235000D02*
X155301000Y-117345000D01*
X155341000Y-102381000D02*
X155341000Y-108475000D01*
X155341000Y-111235000D02*
X155341000Y-117329000D01*
X155381000Y-102397000D02*
X155381000Y-108475000D01*
X155381000Y-111235000D02*
X155381000Y-117313000D01*
X155421000Y-102414000D02*
X155421000Y-108475000D01*
X155421000Y-111235000D02*
X155421000Y-117296000D01*
X155461000Y-102430000D02*
X155461000Y-108475000D01*
X155461000Y-111235000D02*
X155461000Y-117280000D01*
X155501000Y-102447000D02*
X155501000Y-108475000D01*
X155501000Y-111235000D02*
X155501000Y-117263000D01*
X155541000Y-102464000D02*
X155541000Y-108475000D01*
X155541000Y-111235000D02*
X155541000Y-117246000D01*
X155581000Y-102482000D02*
X155581000Y-108475000D01*
X155581000Y-111235000D02*
X155581000Y-117228000D01*
X155621000Y-102499000D02*
X155621000Y-108475000D01*
X155621000Y-111235000D02*
X155621000Y-117211000D01*
X155661000Y-102517000D02*
X155661000Y-108475000D01*
X155661000Y-111235000D02*
X155661000Y-117193000D01*
X155701000Y-102535000D02*
X155701000Y-108475000D01*
X155701000Y-111235000D02*
X155701000Y-117175000D01*
X155741000Y-102554000D02*
X155741000Y-108475000D01*
X155741000Y-111235000D02*
X155741000Y-117156000D01*
X155781000Y-102572000D02*
X155781000Y-108475000D01*
X155781000Y-111235000D02*
X155781000Y-117138000D01*
X155821000Y-102591000D02*
X155821000Y-108475000D01*
X155821000Y-111235000D02*
X155821000Y-117119000D01*
X155861000Y-102610000D02*
X155861000Y-108475000D01*
X155861000Y-111235000D02*
X155861000Y-117100000D01*
X155901000Y-102630000D02*
X155901000Y-108475000D01*
X155901000Y-111235000D02*
X155901000Y-117080000D01*
X155941000Y-102650000D02*
X155941000Y-108475000D01*
X155941000Y-111235000D02*
X155941000Y-117060000D01*
X155981000Y-102670000D02*
X155981000Y-108475000D01*
X155981000Y-111235000D02*
X155981000Y-117040000D01*
X156021000Y-102690000D02*
X156021000Y-108475000D01*
X156021000Y-111235000D02*
X156021000Y-117020000D01*
X156061000Y-102711000D02*
X156061000Y-108475000D01*
X156061000Y-111235000D02*
X156061000Y-116999000D01*
X156101000Y-102731000D02*
X156101000Y-108475000D01*
X156101000Y-111235000D02*
X156101000Y-116979000D01*
X156141000Y-102753000D02*
X156141000Y-108475000D01*
X156141000Y-111235000D02*
X156141000Y-116957000D01*
X156181000Y-102774000D02*
X156181000Y-108475000D01*
X156181000Y-111235000D02*
X156181000Y-116936000D01*
X156221000Y-102796000D02*
X156221000Y-108475000D01*
X156221000Y-111235000D02*
X156221000Y-116914000D01*
X156261000Y-102818000D02*
X156261000Y-108475000D01*
X156261000Y-111235000D02*
X156261000Y-116892000D01*
X156301000Y-102840000D02*
X156301000Y-108475000D01*
X156301000Y-111235000D02*
X156301000Y-116870000D01*
X156341000Y-102863000D02*
X156341000Y-108475000D01*
X156341000Y-111235000D02*
X156341000Y-116847000D01*
X156381000Y-102885000D02*
X156381000Y-108475000D01*
X156381000Y-111235000D02*
X156381000Y-116825000D01*
X156421000Y-102909000D02*
X156421000Y-108475000D01*
X156421000Y-111235000D02*
X156421000Y-116801000D01*
X156461000Y-102932000D02*
X156461000Y-108475000D01*
X156461000Y-111235000D02*
X156461000Y-116778000D01*
X156501000Y-102956000D02*
X156501000Y-108475000D01*
X156501000Y-111235000D02*
X156501000Y-116754000D01*
X156541000Y-102980000D02*
X156541000Y-108475000D01*
X156541000Y-111235000D02*
X156541000Y-116730000D01*
X156581000Y-103005000D02*
X156581000Y-108475000D01*
X156581000Y-111235000D02*
X156581000Y-116705000D01*
X156621000Y-103029000D02*
X156621000Y-108475000D01*
X156621000Y-111235000D02*
X156621000Y-116681000D01*
X156661000Y-103054000D02*
X156661000Y-108475000D01*
X156661000Y-111235000D02*
X156661000Y-116656000D01*
X156701000Y-103080000D02*
X156701000Y-108475000D01*
X156701000Y-111235000D02*
X156701000Y-116630000D01*
X156741000Y-103106000D02*
X156741000Y-108475000D01*
X156741000Y-111235000D02*
X156741000Y-116604000D01*
X156781000Y-103132000D02*
X156781000Y-108475000D01*
X156781000Y-111235000D02*
X156781000Y-116578000D01*
X156821000Y-103158000D02*
X156821000Y-108475000D01*
X156821000Y-111235000D02*
X156821000Y-116552000D01*
X156861000Y-103185000D02*
X156861000Y-108475000D01*
X156861000Y-111235000D02*
X156861000Y-116525000D01*
X156901000Y-103212000D02*
X156901000Y-108475000D01*
X156901000Y-111235000D02*
X156901000Y-116498000D01*
X156941000Y-103240000D02*
X156941000Y-108475000D01*
X156941000Y-111235000D02*
X156941000Y-116470000D01*
X156981000Y-103267000D02*
X156981000Y-108475000D01*
X156981000Y-111235000D02*
X156981000Y-116443000D01*
X157021000Y-103296000D02*
X157021000Y-108475000D01*
X157021000Y-111235000D02*
X157021000Y-116414000D01*
X157061000Y-103324000D02*
X157061000Y-108475000D01*
X157061000Y-111235000D02*
X157061000Y-116386000D01*
X157101000Y-103353000D02*
X157101000Y-108475000D01*
X157101000Y-111235000D02*
X157101000Y-116357000D01*
X157141000Y-103382000D02*
X157141000Y-108475000D01*
X157141000Y-111235000D02*
X157141000Y-116328000D01*
X157181000Y-103412000D02*
X157181000Y-108475000D01*
X157181000Y-111235000D02*
X157181000Y-116298000D01*
X157221000Y-103442000D02*
X157221000Y-108475000D01*
X157221000Y-111235000D02*
X157221000Y-116268000D01*
X157261000Y-103473000D02*
X157261000Y-108475000D01*
X157261000Y-111235000D02*
X157261000Y-116237000D01*
X157301000Y-103503000D02*
X157301000Y-108475000D01*
X157301000Y-111235000D02*
X157301000Y-116207000D01*
X157341000Y-103535000D02*
X157341000Y-108475000D01*
X157341000Y-111235000D02*
X157341000Y-116175000D01*
X157381000Y-103566000D02*
X157381000Y-108475000D01*
X157381000Y-111235000D02*
X157381000Y-116144000D01*
X157421000Y-103598000D02*
X157421000Y-108475000D01*
X157421000Y-111235000D02*
X157421000Y-116112000D01*
X157461000Y-103631000D02*
X157461000Y-108475000D01*
X157461000Y-111235000D02*
X157461000Y-116079000D01*
X157501000Y-103664000D02*
X157501000Y-116046000D01*
X157541000Y-103697000D02*
X157541000Y-116013000D01*
X157581000Y-103731000D02*
X157581000Y-115979000D01*
X157621000Y-103765000D02*
X157621000Y-115945000D01*
X157661000Y-103800000D02*
X157661000Y-115910000D01*
X157701000Y-103835000D02*
X157701000Y-115875000D01*
X157741000Y-103871000D02*
X157741000Y-115839000D01*
X157781000Y-103907000D02*
X157781000Y-115803000D01*
X157821000Y-103943000D02*
X157821000Y-115767000D01*
X157861000Y-103980000D02*
X157861000Y-115730000D01*
X157901000Y-104018000D02*
X157901000Y-115692000D01*
X157941000Y-104056000D02*
X157941000Y-115654000D01*
X157981000Y-104095000D02*
X157981000Y-115615000D01*
X158021000Y-104134000D02*
X158021000Y-115576000D01*
X158061000Y-104174000D02*
X158061000Y-115536000D01*
X158101000Y-104214000D02*
X158101000Y-115496000D01*
X158141000Y-104255000D02*
X158141000Y-115455000D01*
X158181000Y-104296000D02*
X158181000Y-115414000D01*
X158221000Y-104338000D02*
X158221000Y-115372000D01*
X158261000Y-104381000D02*
X158261000Y-115329000D01*
X158301000Y-104424000D02*
X158301000Y-115286000D01*
X158341000Y-104468000D02*
X158341000Y-115242000D01*
X158381000Y-104512000D02*
X158381000Y-115198000D01*
X158421000Y-104558000D02*
X158421000Y-115152000D01*
X158461000Y-104604000D02*
X158461000Y-115106000D01*
X158501000Y-104650000D02*
X158501000Y-115060000D01*
X158541000Y-104698000D02*
X158541000Y-115012000D01*
X158581000Y-104746000D02*
X158581000Y-114964000D01*
X158621000Y-104795000D02*
X158621000Y-114915000D01*
X158661000Y-104844000D02*
X158661000Y-114866000D01*
X158701000Y-104895000D02*
X158701000Y-114815000D01*
X158741000Y-104946000D02*
X158741000Y-114764000D01*
X158781000Y-104998000D02*
X158781000Y-114712000D01*
X158821000Y-105051000D02*
X158821000Y-114659000D01*
X158861000Y-105105000D02*
X158861000Y-114605000D01*
X158901000Y-105160000D02*
X158901000Y-114550000D01*
X158941000Y-105216000D02*
X158941000Y-114494000D01*
X158981000Y-105273000D02*
X158981000Y-114437000D01*
X159021000Y-105331000D02*
X159021000Y-114379000D01*
X159061000Y-105390000D02*
X159061000Y-114320000D01*
X159101000Y-105450000D02*
X159101000Y-114260000D01*
X159141000Y-105512000D02*
X159141000Y-114198000D01*
X159181000Y-105574000D02*
X159181000Y-114136000D01*
X159221000Y-105638000D02*
X159221000Y-114072000D01*
X159261000Y-105704000D02*
X159261000Y-114006000D01*
X159301000Y-105771000D02*
X159301000Y-113939000D01*
X159341000Y-105839000D02*
X159341000Y-113871000D01*
X159381000Y-105909000D02*
X159381000Y-113801000D01*
X159421000Y-105980000D02*
X159421000Y-113730000D01*
X159461000Y-106053000D02*
X159461000Y-113657000D01*
X159501000Y-106129000D02*
X159501000Y-113581000D01*
X159541000Y-106206000D02*
X159541000Y-113504000D01*
X159581000Y-106285000D02*
X159581000Y-113425000D01*
X159621000Y-106366000D02*
X159621000Y-113344000D01*
X159661000Y-106450000D02*
X159661000Y-113260000D01*
X159701000Y-106536000D02*
X159701000Y-113174000D01*
X159741000Y-106625000D02*
X159741000Y-113085000D01*
X159781000Y-106717000D02*
X159781000Y-112993000D01*
X159821000Y-106813000D02*
X159821000Y-112897000D01*
X159861000Y-106912000D02*
X159861000Y-112798000D01*
X159901000Y-107014000D02*
X159901000Y-112696000D01*
X159941000Y-107122000D02*
X159941000Y-112588000D01*
X159981000Y-107234000D02*
X159981000Y-112476000D01*
X160021000Y-107352000D02*
X160021000Y-112358000D01*
X160061000Y-107476000D02*
X160061000Y-112234000D01*
X160101000Y-107607000D02*
X160101000Y-112103000D01*
X160141000Y-107748000D02*
X160141000Y-111962000D01*
X160181000Y-107899000D02*
X160181000Y-111811000D01*
X160221000Y-108063000D02*
X160221000Y-111647000D01*
X160261000Y-108245000D02*
X160261000Y-111465000D01*
X160301000Y-108450000D02*
X160301000Y-111260000D01*
X160341000Y-108691000D02*
X160341000Y-111019000D01*
X160381000Y-108996000D02*
X160381000Y-110714000D01*
X160421000Y-109492000D02*
X160421000Y-110218000D01*
X145390000Y-109855000D02*
X147190000Y-109855000D01*
X146290000Y-108955000D02*
X146290000Y-110755000D01*
X160430000Y-109855000D02*
G75*
G03X160430000Y-109855000I-8090000J0D01*
G01*
X172085000Y-92540000D02*
X172085000Y-90740000D01*
X171185000Y-91640000D02*
X172985000Y-91640000D01*
X168025000Y-94350000D02*
X176145000Y-94350000D01*
X168025000Y-73230000D02*
X176145000Y-73230000D01*
X168025000Y-94350000D02*
X168025000Y-92550000D01*
X168025000Y-92550000D02*
X168925000Y-91650000D01*
X168925000Y-91650000D02*
X168025000Y-90750000D01*
X168025000Y-90750000D02*
X168025000Y-73230000D01*
X176145000Y-94350000D02*
X176145000Y-92550000D01*
X176145000Y-92550000D02*
X175245000Y-91650000D01*
X175245000Y-91650000D02*
X176145000Y-90750000D01*
X176145000Y-90750000D02*
X176145000Y-73230000D01*
X172085000Y-96410000D02*
X172085000Y-94350000D01*
X172085000Y-71170000D02*
X172085000Y-73230000D01*
X127635000Y-105410000D02*
X139065000Y-105410000D01*
X139065000Y-105410000D02*
X139700000Y-106045000D01*
X139700000Y-106045000D02*
X139700000Y-117475000D01*
X139700000Y-117475000D02*
X139065000Y-118110000D01*
X139065000Y-118110000D02*
X127635000Y-118110000D01*
X127000000Y-117475000D02*
X127000000Y-106045000D01*
X127000000Y-106045000D02*
X127635000Y-105410000D01*
X127635000Y-118110000D02*
X127000000Y-117475000D01*
X176530000Y-118110000D02*
X165100000Y-118110000D01*
X165100000Y-118110000D02*
X164465000Y-117475000D01*
X164465000Y-117475000D02*
X164465000Y-106045000D01*
X164465000Y-106045000D02*
X165100000Y-105410000D01*
X165100000Y-105410000D02*
X176530000Y-105410000D01*
X177165000Y-106045000D02*
X177165000Y-117475000D01*
X177165000Y-117475000D02*
X176530000Y-118110000D01*
X176530000Y-105410000D02*
X177165000Y-106045000D01*
X149965000Y-95195000D02*
X153565000Y-95195000D01*
X149926522Y-95183478D02*
G75*
G02X151765000Y-90745000I1838478J1838478D01*
G01*
X153603478Y-95183478D02*
G75*
G03X151765000Y-90745000I-1838478J1838478D01*
G01*
X146090000Y-74260000D02*
X143470000Y-74260000D01*
X143470000Y-74260000D02*
X143470000Y-80680000D01*
X143470000Y-80680000D02*
X146090000Y-80680000D01*
X146090000Y-80680000D02*
X146090000Y-74260000D01*
X144780000Y-73370000D02*
X144780000Y-74260000D01*
X144780000Y-81570000D02*
X144780000Y-80680000D01*
X159345000Y-95920000D02*
X161965000Y-95920000D01*
X161965000Y-95920000D02*
X161965000Y-89500000D01*
X161965000Y-89500000D02*
X159345000Y-89500000D01*
X159345000Y-89500000D02*
X159345000Y-95920000D01*
X160655000Y-96810000D02*
X160655000Y-95920000D01*
X160655000Y-88610000D02*
X160655000Y-89500000D01*
D12*
X162147381Y-77636666D02*
X161671190Y-77970000D01*
X162147381Y-78208095D02*
X161147381Y-78208095D01*
X161147381Y-77827142D01*
X161195000Y-77731904D01*
X161242619Y-77684285D01*
X161337857Y-77636666D01*
X161480714Y-77636666D01*
X161575952Y-77684285D01*
X161623571Y-77731904D01*
X161671190Y-77827142D01*
X161671190Y-78208095D01*
X161147381Y-77303333D02*
X161147381Y-76684285D01*
X161528333Y-77017619D01*
X161528333Y-76874761D01*
X161575952Y-76779523D01*
X161623571Y-76731904D01*
X161718810Y-76684285D01*
X161956905Y-76684285D01*
X162052143Y-76731904D01*
X162099762Y-76779523D01*
X162147381Y-76874761D01*
X162147381Y-77160476D01*
X162099762Y-77255714D01*
X162052143Y-77303333D01*
X126877143Y-84206666D02*
X126924762Y-84254285D01*
X126972381Y-84397142D01*
X126972381Y-84492380D01*
X126924762Y-84635238D01*
X126829524Y-84730476D01*
X126734286Y-84778095D01*
X126543810Y-84825714D01*
X126400952Y-84825714D01*
X126210476Y-84778095D01*
X126115238Y-84730476D01*
X126020000Y-84635238D01*
X125972381Y-84492380D01*
X125972381Y-84397142D01*
X126020000Y-84254285D01*
X126067619Y-84206666D01*
X125972381Y-83873333D02*
X125972381Y-83254285D01*
X126353333Y-83587619D01*
X126353333Y-83444761D01*
X126400952Y-83349523D01*
X126448571Y-83301904D01*
X126543810Y-83254285D01*
X126781905Y-83254285D01*
X126877143Y-83301904D01*
X126924762Y-83349523D01*
X126972381Y-83444761D01*
X126972381Y-83730476D01*
X126924762Y-83825714D01*
X126877143Y-83873333D01*
X141652381Y-92876666D02*
X141176190Y-93210000D01*
X141652381Y-93448095D02*
X140652381Y-93448095D01*
X140652381Y-93067142D01*
X140700000Y-92971904D01*
X140747619Y-92924285D01*
X140842857Y-92876666D01*
X140985714Y-92876666D01*
X141080952Y-92924285D01*
X141128571Y-92971904D01*
X141176190Y-93067142D01*
X141176190Y-93448095D01*
X140985714Y-92019523D02*
X141652381Y-92019523D01*
X140604762Y-92257619D02*
X141319048Y-92495714D01*
X141319048Y-91876666D01*
X150220952Y-100342619D02*
X150268571Y-100295000D01*
X150363809Y-100247381D01*
X150601905Y-100247381D01*
X150697143Y-100295000D01*
X150744762Y-100342619D01*
X150792381Y-100437857D01*
X150792381Y-100533095D01*
X150744762Y-100675952D01*
X150173333Y-101247381D01*
X150792381Y-101247381D01*
X151411428Y-100247381D02*
X151506667Y-100247381D01*
X151601905Y-100295000D01*
X151649524Y-100342619D01*
X151697143Y-100437857D01*
X151744762Y-100628333D01*
X151744762Y-100866429D01*
X151697143Y-101056905D01*
X151649524Y-101152143D01*
X151601905Y-101199762D01*
X151506667Y-101247381D01*
X151411428Y-101247381D01*
X151316190Y-101199762D01*
X151268571Y-101152143D01*
X151220952Y-101056905D01*
X151173333Y-100866429D01*
X151173333Y-100628333D01*
X151220952Y-100437857D01*
X151268571Y-100342619D01*
X151316190Y-100295000D01*
X151411428Y-100247381D01*
X152601905Y-100580714D02*
X152601905Y-101247381D01*
X152173333Y-100580714D02*
X152173333Y-101104524D01*
X152220952Y-101199762D01*
X152316190Y-101247381D01*
X152459048Y-101247381D01*
X152554286Y-101199762D01*
X152601905Y-101152143D01*
X153411429Y-100723571D02*
X153078095Y-100723571D01*
X153078095Y-101247381D02*
X153078095Y-100247381D01*
X153554286Y-100247381D01*
X154459048Y-101247381D02*
X153887619Y-101247381D01*
X154173333Y-101247381D02*
X154173333Y-100247381D01*
X154078095Y-100390238D01*
X153982857Y-100485476D01*
X153887619Y-100533095D01*
X167382143Y-83956666D02*
X167429762Y-84004285D01*
X167477381Y-84147142D01*
X167477381Y-84242380D01*
X167429762Y-84385238D01*
X167334524Y-84480476D01*
X167239286Y-84528095D01*
X167048810Y-84575714D01*
X166905952Y-84575714D01*
X166715476Y-84528095D01*
X166620238Y-84480476D01*
X166525000Y-84385238D01*
X166477381Y-84242380D01*
X166477381Y-84147142D01*
X166525000Y-84004285D01*
X166572619Y-83956666D01*
X166572619Y-83575714D02*
X166525000Y-83528095D01*
X166477381Y-83432857D01*
X166477381Y-83194761D01*
X166525000Y-83099523D01*
X166572619Y-83051904D01*
X166667857Y-83004285D01*
X166763095Y-83004285D01*
X166905952Y-83051904D01*
X167477381Y-83623333D01*
X167477381Y-83004285D01*
X128722381Y-111228095D02*
X127722381Y-111228095D01*
X127722381Y-110847142D01*
X127770000Y-110751904D01*
X127817619Y-110704285D01*
X127912857Y-110656666D01*
X128055714Y-110656666D01*
X128150952Y-110704285D01*
X128198571Y-110751904D01*
X128246190Y-110847142D01*
X128246190Y-111228095D01*
X128722381Y-109704285D02*
X128722381Y-110275714D01*
X128722381Y-109990000D02*
X127722381Y-109990000D01*
X127865238Y-110085238D01*
X127960476Y-110180476D01*
X128008095Y-110275714D01*
X176347381Y-113768095D02*
X175347381Y-113768095D01*
X175347381Y-113387142D01*
X175395000Y-113291904D01*
X175442619Y-113244285D01*
X175537857Y-113196666D01*
X175680714Y-113196666D01*
X175775952Y-113244285D01*
X175823571Y-113291904D01*
X175871190Y-113387142D01*
X175871190Y-113768095D01*
X175442619Y-112815714D02*
X175395000Y-112768095D01*
X175347381Y-112672857D01*
X175347381Y-112434761D01*
X175395000Y-112339523D01*
X175442619Y-112291904D01*
X175537857Y-112244285D01*
X175633095Y-112244285D01*
X175775952Y-112291904D01*
X176347381Y-112863333D01*
X176347381Y-112244285D01*
X151669762Y-90332619D02*
X151574524Y-90285000D01*
X151479286Y-90189762D01*
X151336429Y-90046905D01*
X151241190Y-89999286D01*
X151145952Y-89999286D01*
X151193571Y-90237381D02*
X151098333Y-90189762D01*
X151003095Y-90094524D01*
X150955476Y-89904048D01*
X150955476Y-89570714D01*
X151003095Y-89380238D01*
X151098333Y-89285000D01*
X151193571Y-89237381D01*
X151384048Y-89237381D01*
X151479286Y-89285000D01*
X151574524Y-89380238D01*
X151622143Y-89570714D01*
X151622143Y-89904048D01*
X151574524Y-90094524D01*
X151479286Y-90189762D01*
X151384048Y-90237381D01*
X151193571Y-90237381D01*
X152574524Y-90237381D02*
X152003095Y-90237381D01*
X152288809Y-90237381D02*
X152288809Y-89237381D01*
X152193571Y-89380238D01*
X152098333Y-89475476D01*
X152003095Y-89523095D01*
X147542381Y-77636666D02*
X147066190Y-77970000D01*
X147542381Y-78208095D02*
X146542381Y-78208095D01*
X146542381Y-77827142D01*
X146590000Y-77731904D01*
X146637619Y-77684285D01*
X146732857Y-77636666D01*
X146875714Y-77636666D01*
X146970952Y-77684285D01*
X147018571Y-77731904D01*
X147066190Y-77827142D01*
X147066190Y-78208095D01*
X147542381Y-76684285D02*
X147542381Y-77255714D01*
X147542381Y-76970000D02*
X146542381Y-76970000D01*
X146685238Y-77065238D01*
X146780476Y-77160476D01*
X146828095Y-77255714D01*
X158797381Y-92876666D02*
X158321190Y-93210000D01*
X158797381Y-93448095D02*
X157797381Y-93448095D01*
X157797381Y-93067142D01*
X157845000Y-92971904D01*
X157892619Y-92924285D01*
X157987857Y-92876666D01*
X158130714Y-92876666D01*
X158225952Y-92924285D01*
X158273571Y-92971904D01*
X158321190Y-93067142D01*
X158321190Y-93448095D01*
X157892619Y-92495714D02*
X157845000Y-92448095D01*
X157797381Y-92352857D01*
X157797381Y-92114761D01*
X157845000Y-92019523D01*
X157892619Y-91971904D01*
X157987857Y-91924285D01*
X158083095Y-91924285D01*
X158225952Y-91971904D01*
X158797381Y-92543333D01*
X158797381Y-91924285D01*
M02*
