M48
;DRILL file {KiCad 4.0.5} date 05/27/17 15:57:16
;FORMAT={-:-/ absolute / metric / decimal}
FMAT,2
METRIC,TZ
T1C0.600
T2C0.800
T3C1.143
T4C1.200
%
G90
G05
M71
T1
X150.495Y-93.345
X151.765Y-93.345
X153.035Y-93.345
T2
X143.51Y-87.63
X143.51Y-97.79
X144.78Y-72.39
X144.78Y-82.55
X159.385Y-72.39
X159.385Y-82.55
X160.655Y-87.63
X160.655Y-97.79
T3
X130.81Y-116.84
X135.89Y-106.68
X168.275Y-116.84
X173.355Y-106.68
T4
X132.08Y-70.29
X132.08Y-97.79
X148.59Y-109.855
X156.09Y-109.855
X172.085Y-69.79
X172.085Y-97.79
T0
M30
